{"title":"Welcome To The Jungle(2013) 1080p MP4_PapaFatHead","uid":9577636,"size":3187065145,"categoryP":"video","categoryS":"hd___movies","magnet":"?xt=urn:btih:b727d7af7b6f787b99fd914422211bbf1c6e3359&amp;dn=Welcome+To+The+Jungle%282013%29+1080p+MP4_PapaFatHead&amp;tr=udp%3A%2F%2Ftracker.openbittorrent.com%3A80&amp;tr=udp%3A%2F%2Fopen.demonii.com%3A1337&amp;tr=udp%3A%2F%2Ftracker.coppersurfer.tk%3A6969&amp;tr=udp%3A%2F%2Fexodus.desync.com%3A6969","seeders":1,"leechers":0,"uploader":"PapaFatHead","files":1,"time":1391726333,"description":"Complete name                  : Welcome to the Jungle(2013).mp4\nFormat                         : MPEG-4\nFormat profile                 : Base Media\nCodec ID                       : isom\nFile size                      : 2.97 GiB\nDuration                       : 1h 34mn\nOverall bit rate mode          : Variable\nOverall bit rate               : 4 510 Kbps\nMovie name                     : welcome.to.the.jungle.2013.limited.1080p.bluray\nPerformer                      : WinX HD Video Converter Deluxe\nWriting application            : Lavf55.19.104\n\nVideo\nID                             : 1\nFormat                         : MPEG-4 Visual\nFormat profile                 : Simple@L3\nFormat settings, BVOP          : No\nFormat settings, QPel          : No\nFormat settings, GMC           : No warppoints\nFormat settings, Matrix        : Default (H.263)\nCodec ID                       : 20\nDuration                       : 1h 34mn\nBit rate mode                  : Variable\nBit rate                       : 4 376 Kbps\nMaximum bit rate               : 5 000 Kbps\nWidth                          : 1 920 pixels\nHeight                         : 800 pixels\nDisplay aspect ratio           : 16:9\nFrame rate mode                : Constant\nFrame rate                     : 23.976 fps\nColor space                    : YUV\nChroma subsampling             : 4:2:0\nBit depth                      : 8 bits\nScan type                      : Progressive\nCompression mode               : Lossy\nBits/(Pixel*Frame)             : 0.119\nStream size                    : 2.88 GiB (97%)\nWriting library                : Lavc55.39.100\nLanguage                       : English\n\nAudio\nID                             : 2\nFormat                         : AAC\nFormat/Info                    : Advanced Audio Codec\nFormat profile                 : LC\nCodec ID                       : 40\nDuration                       : 1h 34mn\nBit rate mode                  : Variable\nBit rate                       : 128 Kbps\nMaximum bit rate               : 5 000 Kbps\nChannel(s)                     : 2 channels\nChannel(s)_Original            : 6 channels\nChannel positions              : Front: L C R, Side: L R, LFE\nSampling rate                  : 44.1 KHz\nCompression mode               : Lossy\nStream size                    : 86.3 MiB (3%)\nLanguage                       : English\n\nMenu #1\nID                             : 3\nCodec ID                       : text\nDuration                       : 1h 34mn\nLanguage                       : English\nBit rate mode                  : CBR\n\nMenu #2\n00:00:00.000                   : 00:00:00.000\n00:07:37.415                   : 00:07:37.415\n00:16:20.813                   : 00:16:20.813\n00:22:29.431                   : 00:22:29.431\n00:30:31.872                   : 00:30:31.872\n00:37:32.167                   : 00:37:32.167\n00:44:06.727                   : 00:44:06.727\n00:54:38.901                   : 00:54:38.901\n01:05:44.983                   : 01:05:44.983\n01:10:06.452                   : 01:10:06.452\n01:24:13.632                   : 01:24:13.632\n01:28:57.916                   : 01:28:57.916\n","torrent":{"xt":"urn:btih:b727d7af7b6f787b99fd914422211bbf1c6e3359","amp;dn":"Welcome+To+The+Jungle%282013%29+1080p+MP4_PapaFatHead","amp;tr":["udp%3A%2F%2Ftracker.openbittorrent.com%3A80","udp%3A%2F%2Fopen.demonii.com%3A1337","udp%3A%2F%2Ftracker.coppersurfer.tk%3A6969","udp%3A%2F%2Fexodus.desync.com%3A6969"],"infoHash":"b727d7af7b6f787b99fd914422211bbf1c6e3359","infoHashBuffer":{"type":"Buffer","data":[183,39,215,175,123,111,120,123,153,253,145,68,34,33,27,191,28,110,51,89]},"announce":[],"urlList":[]}}